<svg xmlns="http://www.w3.org/2000/svg" viewBox="0 0 48 48">
  <g stroke="#2563eb" stroke-width="1.9" stroke-linecap="round">
    <line x1="24" y1="11" x2="24" y2="5.5"/>
    <line x1="24" y1="37" x2="24" y2="42.5"/>
    <line x1="11" y1="24" x2="5.5" y2="24"/>
    <line x1="37" y1="24" x2="42.5" y2="24"/>
    <line x1="14" y1="14" x2="9.8" y2="9.8"/>
    <line x1="34" y1="34" x2="38.2" y2="38.2"/>
    <line x1="34" y1="14" x2="38.2" y2="9.8"/>
    <line x1="14" y1="34" x2="9.8" y2="38.2"/>
  </g>
  <circle cx="24" cy="4.6" r="2.5" fill="#2563eb"/>
  <circle cx="24" cy="43.4" r="2.5" fill="#2563eb"/>
  <circle cx="4.6" cy="24" r="2.5" fill="#a8c3f9"/>
  <circle cx="43.4" cy="24" r="2.2" fill="none" stroke="#2563eb" stroke-width="1.7"/>
  <circle cx="8.4" cy="8.4" r="2" fill="#a8c3f9"/>
  <circle cx="39.6" cy="39.6" r="2.3" fill="#2563eb"/>
  <circle cx="39.6" cy="8.4" r="1.9" fill="none" stroke="#2563eb" stroke-width="1.6"/>
  <circle cx="8.4" cy="39.6" r="1.9" fill="#2563eb"/>
  <defs>
    <linearGradient id="chip" x1="0" y1="0" x2="1" y2="1">
      <stop offset="0%" stop-color="#3b82f6"/>
      <stop offset="100%" stop-color="#1e40af"/>
    </linearGradient>
  </defs>
  <rect x="11.5" y="11.5" width="25" height="25" rx="7" fill="url(#chip)"/>
  <rect x="13" y="13" width="22" height="22" rx="5.8" fill="none" stroke="rgba(255,255,255,0.28)" stroke-width="0.9"/>
  <g transform="translate(15.1 15.1) scale(0.74)" fill="none" stroke="#fff" stroke-width="2.1" stroke-linecap="round" stroke-linejoin="round">
    <path d="M12 18V5"/>
    <path d="M15 13a4.17 4.17 0 0 1-3-4 4.17 4.17 0 0 1-3 4"/>
    <path d="M17.598 6.5A3 3 0 1 0 12 5a3 3 0 1 0-5.598 1.5"/>
    <path d="M17.997 5.125a4 4 0 0 1 2.526 5.77"/>
    <path d="M18 18a4 4 0 0 0 2-7.464"/>
    <path d="M19.967 17.483A4 4 0 1 1 12 18a4 4 0 1 1-7.967-.517"/>
    <path d="M6 18a4 4 0 0 1-2-7.464"/>
    <path d="M6.003 5.125a4 4 0 0 0-2.526 5.77"/>
  </g>
</svg>
